# xmcd
# 
# Track frame offsets:
#     150
#     17755
#     42665
#     57895
#     77938
#     98445
#     116955
#     131833
#     144425
#     166303
# 
# Disc length: 2430
# 
# Revision: 4
# Processed by: cddbd v1.5.2PL0 Copyright (c) Steve Scherf et al.
# Submitted via: fre:ac v1.1beta2
# 
DISCID=88097c0a
DTITLE=Gabriela Anders - Last Tango In Rio
DYEAR=2004
DGENRE=Bossa - Jazz
TTITLE0=You Go To My Head
TTITLE1=Abracadabra
TTITLE2=Love Is Here To Stay
TTITLE3=God Bless The Child
TTITLE4=Embrace Me
TTITLE5=The Buenos Aires Mix
TTITLE6=Body And Soul
TTITLE7=All Your love
TTITLE8=Meant To Be
TTITLE9='Til The End Of Time
EXTD=
EXTT0=
EXTT1=
EXTT2=
EXTT3=
EXTT4=
EXTT5=
EXTT6=
EXTT7=
EXTT8=
EXTT9=
PLAYORDER=
